# xmcd
#
# Track frame offsets: 
#        150
#        11771
#        29314
#        43715
#        60923
#        91379
#        115080
#        138923
#        155907
#        182203
#        196873
#        203714
#        218641
#        236144
#
# Disc length: 3522 seconds
#
# Revision: 0
# Processed by: cddbd v1.5.2PL0 Copyright (c) Steve Scherf et al.
# Submitted via: ExactAudioCopy v1.0b3
#
DISCID=be0dc00e
DTITLE=Artland Country Club - Rust And Dirt
DYEAR=2011
DGENRE=Country
TTITLE0=Avalanche Drive
TTITLE1=Love Easy? No!
TTITLE2=Thanks For All The Flowers
TTITLE3=Leather Boots
TTITLE4=Destiny Train
TTITLE5=In The Garden
TTITLE6=The Jungle We Call Home
TTITLE7=Meaning Of Live
TTITLE8=Madman's Dream
TTITLE9=News Tonite
TTITLE10=Eat Tokyo
TTITLE11=Baby's Not In Love
TTITLE12=Sally And Johnny
TTITLE13=The Angel, The Trucker And Me
EXTD=
EXTT0=
EXTT1=
EXTT2=
EXTT3=
EXTT4=
EXTT5=
EXTT6=
EXTT7=
EXTT8=
EXTT9=
EXTT10=
EXTT11=
EXTT12=
EXTT13=
PLAYORDER=
